<svg version="1.0" xmlns="http://www.w3.org/2000/svg" width="2560" height="1440" viewBox="0 0 1920 1080"><path d="M696.2 358.1c-10.3 2.2-36.1 19.2-42.8 28.1-1.1 1.5-2.3 2.5-2.6 2.2-1.1-1-7.9 8.2-9.6 12.9-1.6 4.5-1.7 4.6-2.2 2.1-.5-2.4-1.3-1.5-9.8 10.2-10.7 14.8-20.1 32.8-20.9 39.7-.3 2.6-1.2 5.2-1.9 5.8-2 1.6-1.7 8 .6 14.6 1.1 3.1 1.8 5.8 1.6 6.1-.7.7-3.4-5.3-4.7-10.4l-1.2-4.8-2.8 16.6c-2.5 15.3-2.6 17.1-1.4 22.5 1.5 6.6 1.3 8-.5 3.1l-1.3-3.3-.9 3.5c-.5 1.9-1 10.5-1 19-.1 11.9.3 16.5 1.5 19.7 1.7 4.5 1.3 5.2-3.6 5.4-2 .1-2 .2.3 1 2.3.7 2.3.8-.7.6-3-.2-8.3 3.3-8.3 5.4 0 .5 1.1-.3 2.5-1.6 1.6-1.7 3.5-2.5 5.7-2.4l3.3.1-3.2.9c-3.1.9-8.3 6-8.3 8.1 0 .6 1-.4 2.3-2.3 1.3-1.9 2.9-3.4 3.7-3.4.8 0 2.1-.4 2.7-.8.7-.5 2-.4 2.9.1 1.3.7 1 1.1-1.8 1.6-2.1.4-3.5 1.2-3.5 2.1 0 1.3.2 1.3 1.7 0 3.3-3 7.4-.9 6.3 3.3-.4 1.6-1.3 2.2-3.3 2.2-1.5 0-3.4.7-4.1 1.6-1.1 1.4-1 1.9.9 3.5 2 1.5 2.2 2.4 1.6 5.6-1.5 8.5-7.2 14.7-15.9 17.3-7.7 2.2-9.6 3.3-11 6.1-2.8 5.4-1 17.3 3.5 23.9 1 1.4 2 3.6 2.1 5 .4 2.2 1.1 2.6 5.4 3.2 6.6.8 37.6 1 45.4.1 4.5-.4 6.4-1.1 6.8-2.2.3-.9 1.8-4.4 3.4-7.7 1.6-3.4 3.4-8.5 3.9-11.4 1.9-9.9-.7-13.8-11.2-17-5.1-1.5-7.9-3.1-10.8-6-5.4-5.4-7.9-14.9-4.4-16.8.9-.5 1.4-1.8 1.2-2.8-.2-1.4-1.3-2-4.1-2.2-3.7-.3-3.8-.4-3.1-3.5.9-4.5 1.1-4.7 4.7-4.8l3.2-.2-3.4-.6c-3.2-.6-3.4-.7-1.8-2.3 1.2-1.2 1.4-1.8.4-2.1-.7-.3-.4-.6.6-.6 2.5-.1 6.8 2.9 6 4.2-.3.6-.1.7.5.3.8-.5 1.2.1 1.2 1.5 0 1.9-.2 2-1.7.8-1.5-1.1-1.6-1.1-.5.1.6.8 1.2 2.3 1.2 3.5 0 1.2-.6 2.7-1.2 3.5-.7.8-.3.6 1-.5 2-1.7 2.3-2.6 1.8-6.5-1-8.4-1.1-8.5-3.7-8.2-1.8.2-2 0-1-.7 1.1-.7 1-1-.8-1.3-2-.3-1.9-.6 2-5.3 2.2-2.7 6.2-6.4 8.7-8.1 6.6-4.4 12.6-11.2 16.1-18.2 2.8-5.5 10.1-27.9 10.6-32.8.2-1.1 2.1-7.8 4.4-14.7 2.3-6.9 4.1-13.2 4.1-13.9 0-.6-1.6.4-3.6 2.3l-3.6 3.4 3.6-5c4.9-6.7 16.7-33.5 22.6-51.5 2.6-8 5.1-15.4 5.6-16.5.7-1.7.2-1.6-3.2.9-3.8 2.7-3.7 2.6.9-1.9 2.6-2.6 6.1-7.3 7.7-10.5 1.6-3.1 5.2-8.8 8-12.5 2.9-3.6 5-6.8 4.8-6.9-.1-.2-1.8.1-3.6.5zm-58.1 82.5c-1.6 3.3-3 5.6-3.1 5.2 0-1.1 5.3-11.8 5.8-11.4.2.2-1 3-2.7 6.2zm-9.2 21.9c-5.9 15.1-13.7 41.2-20.5 68.5-2.7 10.7-5 18.8-5.2 18-.3-1.8 5.3-25.3 10.2-42.9 1.9-6.8 3.3-12.8 3-13.2-.2-.4 0-.9.4-1.1.5-.1 2.1-4.1 3.6-8.8 3.5-10.6 12.7-34.3 13.2-33.8.2.2-1.9 6.2-4.7 13.3zM823.8 459.4c-12.5 3.6-19.7 12.5-23.8 29.7-1 4.5-2 8.2-2.2 8.3-.2.1-3.7 1.8-7.9 3.6l-7.7 3.5-1.1 5.4c-.6 3-1.1 5.8-1.1 6.3 0 .4 3.2.8 7.1.8 6.2 0 7 .2 6.5 1.7-.3 1-4.6 21.1-9.6 44.7-6.2 29.2-9.7 44-11.1 46.3-3.5 5.7-10.1 7.7-18.7 5.8l-3.2-.7v10.5c0 12.2-.6 11.6 11.6 12.4 17.2 1.2 29.7-6.5 35.6-21.9 1.4-3.8 21.8-95.6 21.8-98.4 0-.2 4.4-.5 9.8-.6l9.7-.3 1.7-7.5c2.8-12.8 3.2-12-7.2-12-10 0-10 .1-7.9-7.3 2.4-8.8 9.8-12.5 18.7-9.4 5 1.7 4.2 2.7 8.8-10.7 1.9-5.4 2.1-7.2 1.2-7.8-5-3.2-23.3-4.6-31-2.4zM463 527v68h14V459h-14v68zM1366.6 477.5c-2.1 10.1-4.1 21.4-4.3 25-.3 3.6-.9 6.5-1.3 6.5-.3 0-2.1-2-3.8-4.4-4.5-6.2-10.4-8.9-19.4-8.8-9.6 0-17.4 3.9-25.7 12.7-19.8 21.2-25.1 64.4-9.8 80.3 6.8 7.2 16 9.5 26.6 6.8 6.7-1.7 10.3-3.8 16.5-9.5l3.8-3.6-.6 6.2-.7 6.3h10c8.6 0 10-.2 10.5-1.8.2-.9 6.6-30.7 14.1-66.2s13.8-65.3 14.1-66.3c.5-1.6-.6-1.7-12.8-1.7h-13.3l-3.9 18.5zm-16.2 42c3.6 3.4 4.6 6.5 4.6 14.9 0 14.4-5.5 29.1-13.7 36.6-3.7 3.5-4.8 4-9.1 4-9.5 0-13-6-11.8-20.4 1.2-14.7 8-30.1 15.5-35.2 4.9-3.3 10.9-3.3 14.5.1zM366 531v64h71v-13l-28.2-.2-28.3-.3-.3-23.3-.2-23.2h53v-13l-26.2-.2-26.3-.3v-41l28.3-.3 28.2-.2v-13h-71v64zM729.1 496c-7.5 1.6-15.6 7.3-22.4 16l-2.8 3.5.6-6c.3-3.3.8-7.5 1.1-9.3l.5-3.3-10.2.3-10.2.3-9.8 45.9c-5.3 25.2-10 47.2-10.3 48.8l-.6 2.9 13.2-.3 13.2-.3 4.8-22.5c5.7-27.3 8.9-37.4 14-45.1 4.7-7 9-9.9 14.7-9.9 6.2 0 9.1 3.2 9.1 10.3 0 2.9-2.9 19.2-6.5 36.1-3.6 16.9-6.5 30.9-6.5 31.2 0 .2 5.8.4 12.9.4 11.5 0 13-.2 13.5-1.8.3-.9 3.3-14.8 6.7-30.7 7.4-35.1 8.1-44.3 3.8-53.6-2.6-5.5-7-9.8-11.9-11.7-4.1-1.5-12.2-2.1-16.9-1.2zM892 495.6c-14.4 2.2-22.4 6-30.5 14.5-16.4 17.1-22 53.5-11 70.9 7.5 11.8 22.8 17.6 39.6 15.1 24.3-3.8 39.6-22.5 42.9-52.4 3.2-28-9-46-32.5-47.9-3.3-.3-7.1-.4-8.5-.2zm9.5 23.6c3.9 3.1 5.5 7.7 5.5 16-.1 18-6.5 33.3-16.2 38.4-7.6 4-16.7.2-18.9-7.9-2.1-7.8.9-26.5 5.7-35.9 2.3-4.4 7.6-10 10.9-11.4 4.6-2 9.8-1.7 13 .8zM1009.3 496c-8.2 1.7-16.8 7.8-23.1 16.5l-2.2 3 .6-9.3.7-9.2h-9.6c-5.3 0-9.8.3-10 .7-.5.8-20.7 95.4-20.7 96.7 0 .3 5.8.6 12.9.6 11.5 0 13-.2 13.5-1.8.2-.9 2.5-11.6 5.1-23.7 5.3-25.1 7-30.5 11.5-37 6.2-9 16.6-13.8 25.6-11.7l4.2.9 2.7-12.3c1.6-6.8 2.7-12.6 2.4-12.8-1-1-9.8-1.4-13.6-.6zM1085.1 496.1c-7.4 1.5-12.8 4.8-19.6 12.2-5 5.4-6.5 6.5-6.1 4.6.3-1.3.8-5.4 1.1-9.2l.7-6.7h-10.1c-9.6 0-10.1.1-10.6 2.2-.3 1.3-4.8 22.5-10 47.3-5.2 24.7-9.7 45.8-9.9 46.7-.4 1.6.7 1.8 12.8 1.8h13.3l4.2-20.8c6.8-32.6 10.2-42.7 17.2-50.7 4-4.5 7.8-6.5 12.3-6.5 6.6 0 9.4 5.8 7.7 16-.8 4.6-11.1 54.4-12.5 60.2-.4 1.6.7 1.8 12.8 1.8h13.2l4.7-23.2c5.5-26.8 8.5-36.6 13.6-44.2 4.8-7.3 8.2-9.8 14-10.4 4.3-.4 5-.1 6.9 2.3 1.7 2.1 2.2 4.1 2.2 8.5 0 4.3-7.3 41.9-12.5 64.8l-.6 2.3 13.3-.3 13.2-.3 6.4-30c8.7-41.1 8.9-52.1.9-61.1-4.7-5.5-10-7.7-18.2-7.7-10.9 0-19.8 4.7-27.7 14.6l-3.8 4.9-1-2.9c-2.6-7-3.5-8.5-6.7-11.4-2-1.7-4.5-3.4-5.7-3.8-3.8-1.5-11-1.9-15.5-1zM1226.1 496.1c-7.2 1.4-13.3 4.9-19.8 11.5-10.7 10.9-17.8 28.9-19 48-1.4 23.1 6.1 37.3 21.4 40.4 9.9 2.1 21.1-1.4 29-9 2.3-2.2 4.4-4 4.6-4 .2 0 .1 2.7-.1 6l-.4 6H1261.5l10.3-48.3c5.6-26.5 10.2-48.5 10.2-49 0-.4-4.5-.7-9.9-.7h-9.9l-1.7 4.2c-.9 2.4-2.1 5.4-2.6 6.7-.9 2.3-1 2.3-3.9-1.8-4.1-5.6-9.6-9-16.6-10.1-3.2-.6-6.1-.9-6.4-.9-.3.1-2.5.5-4.9 1zm18.4 24.2c4.3 4.3 5.1 8.8 3.8 19.7-1.4 10.5-4.3 19-8.8 25.5-4.5 6.6-9 9.5-14.4 9.5-8.5 0-11.1-3.8-11.1-16.2 0-14.3 4.5-28 11.9-36.1 4.1-4.5 6.1-5.5 11.5-5.6 3-.1 4.5.6 7.1 3.2zM1447 495.6c-14.4 2.2-22.4 6-30.5 14.5-16.4 17.1-22 53.5-11 70.9 7.5 11.8 22.8 17.6 39.6 15.1 24.3-3.8 39.6-22.5 42.9-52.4 3.2-28-9-46-32.5-47.9-3.3-.3-7.1-.4-8.5-.2zm9.5 23.6c3.9 3.1 5.5 7.7 5.5 16-.1 18-6.5 33.3-16.2 38.4-7.6 4-16.7.2-18.9-7.9-2.1-7.8.9-26.5 5.7-35.9 2.3-4.4 7.6-10 10.9-11.4 4.6-2 9.8-1.7 13 .8zM1564.3 496c-8.2 1.7-16.8 7.8-23.1 16.5l-2.2 3 .6-9.3.7-9.2h-9.6c-5.3 0-9.8.3-10 .7-.5.8-20.7 95.4-20.7 96.7 0 .3 5.8.6 12.9.6 11.5 0 13-.2 13.5-1.8.2-.9 2.5-11.6 5.1-23.7 5.3-25.1 7-30.5 11.5-37 6.2-9 16.6-13.8 25.6-11.7l4.2.9 2.7-12.3c1.6-6.8 2.7-12.6 2.4-12.8-1-1-9.8-1.4-13.6-.6z"/><path d="M585.1 566.1c-.1.9.9 2.4 2.2 3.5 2.2 1.9 2.2 1.9.6-.1-.9-1.1-1.9-2.7-2.2-3.5-.5-1.3-.6-1.3-.6.1z"/></svg>